<?xml version="1.0" encoding="utf-8" standalone="no"?>
<!DOCTYPE svg PUBLIC "-//W3C//DTD SVG 1.1//EN"
  "http://www.w3.org/Graphics/SVG/1.1/DTD/svg11.dtd">
<!-- Created with matplotlib (https://matplotlib.org/) -->
<svg height="345.6pt" version="1.1" viewBox="0 0 460.8 345.6" width="460.8pt" xmlns="http://www.w3.org/2000/svg" xmlns:xlink="http://www.w3.org/1999/xlink">
 <defs>
  <style type="text/css">
*{stroke-linecap:butt;stroke-linejoin:round;white-space:pre;}
  </style>
 </defs>
 <g id="figure_1">
  <g id="patch_1">
   <path d="M 0 345.6 
L 460.8 345.6 
L 460.8 0 
L 0 0 
z
" style="fill:#ffffff;"/>
  </g>
  <g id="patch_2">
   <path d="M 0 345.6 
L 460.8 345.6 
L 460.8 0 
L 0 0 
z
" style="fill:#ffffff;"/>
  </g>
  <g id="pane3d_1">
   <g id="patch_3">
    <path d="M 236.627027 182.317581 
L 415.436084 250.253033 
L 424.998066 81.614806 
L 236.627027 20.635696 
" style="fill:#f2f2f2;opacity:0.5;stroke:#f2f2f2;stroke-linejoin:miter;"/>
   </g>
  </g>
  <g id="pane3d_2">
   <g id="patch_4">
    <path d="M 236.627027 182.317581 
L 57.81797 250.253033 
L 48.255988 81.614806 
L 236.627027 20.635696 
" style="fill:#e6e6e6;opacity:0.5;stroke:#e6e6e6;stroke-linejoin:miter;"/>
   </g>
  </g>
  <g id="pane3d_3">
   <g id="patch_5">
    <path d="M 236.627027 182.317581 
L 57.81797 250.253033 
L 236.627027 327.195516 
L 415.436084 250.253033 
" style="fill:#ececec;opacity:0.5;stroke:#ececec;stroke-linejoin:miter;"/>
   </g>
  </g>
  <g id="axis3d_1">
   <g id="line2d_1">
    <path d="M 415.436084 250.253033 
L 236.627027 327.195516 
" style="fill:none;stroke:#000000;stroke-linecap:square;stroke-width:0.8;"/>
   </g>
   <g id="text_1">
    <!-- f1 -->
    <defs>
     <path d="M 37.109375 75.984375 
L 37.109375 68.5 
L 28.515625 68.5 
Q 23.6875 68.5 21.796875 66.546875 
Q 19.921875 64.59375 19.921875 59.515625 
L 19.921875 54.6875 
L 34.71875 54.6875 
L 34.71875 47.703125 
L 19.921875 47.703125 
L 19.921875 0 
L 10.890625 0 
L 10.890625 47.703125 
L 2.296875 47.703125 
L 2.296875 54.6875 
L 10.890625 54.6875 
L 10.890625 58.5 
Q 10.890625 67.625 15.140625 71.796875 
Q 19.390625 75.984375 28.609375 75.984375 
z
" id="DejaVuSans-102"/>
     <path d="M 12.40625 8.296875 
L 28.515625 8.296875 
L 28.515625 63.921875 
L 10.984375 60.40625 
L 10.984375 69.390625 
L 28.421875 72.90625 
L 38.28125 72.90625 
L 38.28125 8.296875 
L 54.390625 8.296875 
L 54.390625 0 
L 12.40625 0 
z
" id="DejaVuSans-49"/>
    </defs>
    <g transform="translate(346.088519 318.875964)scale(0.1 -0.1)">
     <use xlink:href="#DejaVuSans-102"/>
     <use x="35.205078" xlink:href="#DejaVuSans-49"/>
    </g>
   </g>
   <g id="Line3DCollection_1">
    <path d="M 380.63868 265.22654 
L 201.720963 195.579545 
L 199.946725 32.509773 
" style="fill:none;stroke:#b0b0b0;stroke-width:0.8;"/>
    <path d="M 348.225718 279.17401 
L 169.254138 207.914761 
L 165.789489 43.567087 
" style="fill:none;stroke:#b0b0b0;stroke-width:0.8;"/>
    <path d="M 315.034451 293.456387 
L 136.054941 220.52823 
L 130.821657 54.886807 
" style="fill:none;stroke:#b0b0b0;stroke-width:0.8;"/>
    <path d="M 281.036507 308.085882 
L 102.09831 233.429473 
L 95.014027 66.478384 
" style="fill:none;stroke:#b0b0b0;stroke-width:0.8;"/>
    <path d="M 246.202115 323.075306 
L 67.358023 246.628453 
L 58.335979 78.351731 
" style="fill:none;stroke:#b0b0b0;stroke-width:0.8;"/>
   </g>
   <g id="xtick_1">
    <g id="line2d_2">
     <path d="M 379.11797 264.634576 
L 383.684701 266.41226 
" style="fill:none;stroke:#000000;stroke-linecap:square;stroke-width:0.8;"/>
    </g>
    <g id="text_2">
     <!-- 1014 -->
     <defs>
      <path d="M 31.78125 66.40625 
Q 24.171875 66.40625 20.328125 58.90625 
Q 16.5 51.421875 16.5 36.375 
Q 16.5 21.390625 20.328125 13.890625 
Q 24.171875 6.390625 31.78125 6.390625 
Q 39.453125 6.390625 43.28125 13.890625 
Q 47.125 21.390625 47.125 36.375 
Q 47.125 51.421875 43.28125 58.90625 
Q 39.453125 66.40625 31.78125 66.40625 
z
M 31.78125 74.21875 
Q 44.046875 74.21875 50.515625 64.515625 
Q 56.984375 54.828125 56.984375 36.375 
Q 56.984375 17.96875 50.515625 8.265625 
Q 44.046875 -1.421875 31.78125 -1.421875 
Q 19.53125 -1.421875 13.0625 8.265625 
Q 6.59375 17.96875 6.59375 36.375 
Q 6.59375 54.828125 13.0625 64.515625 
Q 19.53125 74.21875 31.78125 74.21875 
z
" id="DejaVuSans-48"/>
      <path d="M 37.796875 64.3125 
L 12.890625 25.390625 
L 37.796875 25.390625 
z
M 35.203125 72.90625 
L 47.609375 72.90625 
L 47.609375 25.390625 
L 58.015625 25.390625 
L 58.015625 17.1875 
L 47.609375 17.1875 
L 47.609375 0 
L 37.796875 0 
L 37.796875 17.1875 
L 4.890625 17.1875 
L 4.890625 26.703125 
z
" id="DejaVuSans-52"/>
     </defs>
     <g transform="translate(377.929396 285.724418)scale(0.1 -0.1)">
      <use xlink:href="#DejaVuSans-49"/>
      <use x="63.623047" xlink:href="#DejaVuSans-48"/>
      <use x="127.246094" xlink:href="#DejaVuSans-49"/>
      <use x="190.869141" xlink:href="#DejaVuSans-52"/>
     </g>
    </g>
   </g>
   <g id="xtick_2">
    <g id="line2d_3">
     <path d="M 346.70349 278.56792 
L 351.274833 280.388044 
" style="fill:none;stroke:#000000;stroke-linecap:square;stroke-width:0.8;"/>
    </g>
    <g id="text_3">
     <!-- 1016 -->
     <defs>
      <path d="M 33.015625 40.375 
Q 26.375 40.375 22.484375 35.828125 
Q 18.609375 31.296875 18.609375 23.390625 
Q 18.609375 15.53125 22.484375 10.953125 
Q 26.375 6.390625 33.015625 6.390625 
Q 39.65625 6.390625 43.53125 10.953125 
Q 47.40625 15.53125 47.40625 23.390625 
Q 47.40625 31.296875 43.53125 35.828125 
Q 39.65625 40.375 33.015625 40.375 
z
M 52.59375 71.296875 
L 52.59375 62.3125 
Q 48.875 64.0625 45.09375 64.984375 
Q 41.3125 65.921875 37.59375 65.921875 
Q 27.828125 65.921875 22.671875 59.328125 
Q 17.53125 52.734375 16.796875 39.40625 
Q 19.671875 43.65625 24.015625 45.921875 
Q 28.375 48.1875 33.59375 48.1875 
Q 44.578125 48.1875 50.953125 41.515625 
Q 57.328125 34.859375 57.328125 23.390625 
Q 57.328125 12.15625 50.6875 5.359375 
Q 44.046875 -1.421875 33.015625 -1.421875 
Q 20.359375 -1.421875 13.671875 8.265625 
Q 6.984375 17.96875 6.984375 36.375 
Q 6.984375 53.65625 15.1875 63.9375 
Q 23.390625 74.21875 37.203125 74.21875 
Q 40.921875 74.21875 44.703125 73.484375 
Q 48.484375 72.75 52.59375 71.296875 
z
" id="DejaVuSans-54"/>
     </defs>
     <g transform="translate(345.614565 299.833956)scale(0.1 -0.1)">
      <use xlink:href="#DejaVuSans-49"/>
      <use x="63.623047" xlink:href="#DejaVuSans-48"/>
      <use x="127.246094" xlink:href="#DejaVuSans-49"/>
      <use x="190.869141" xlink:href="#DejaVuSans-54"/>
     </g>
    </g>
   </g>
   <g id="xtick_3">
    <g id="line2d_4">
     <path d="M 313.511071 292.83566 
L 318.085933 294.699763 
" style="fill:none;stroke:#000000;stroke-linecap:square;stroke-width:0.8;"/>
    </g>
    <g id="text_4">
     <!-- 1018 -->
     <defs>
      <path d="M 31.78125 34.625 
Q 24.75 34.625 20.71875 30.859375 
Q 16.703125 27.09375 16.703125 20.515625 
Q 16.703125 13.921875 20.71875 10.15625 
Q 24.75 6.390625 31.78125 6.390625 
Q 38.8125 6.390625 42.859375 10.171875 
Q 46.921875 13.96875 46.921875 20.515625 
Q 46.921875 27.09375 42.890625 30.859375 
Q 38.875 34.625 31.78125 34.625 
z
M 21.921875 38.8125 
Q 15.578125 40.375 12.03125 44.71875 
Q 8.5 49.078125 8.5 55.328125 
Q 8.5 64.0625 14.71875 69.140625 
Q 20.953125 74.21875 31.78125 74.21875 
Q 42.671875 74.21875 48.875 69.140625 
Q 55.078125 64.0625 55.078125 55.328125 
Q 55.078125 49.078125 51.53125 44.71875 
Q 48 40.375 41.703125 38.8125 
Q 48.828125 37.15625 52.796875 32.3125 
Q 56.78125 27.484375 56.78125 20.515625 
Q 56.78125 9.90625 50.3125 4.234375 
Q 43.84375 -1.421875 31.78125 -1.421875 
Q 19.734375 -1.421875 13.25 4.234375 
Q 6.78125 9.90625 6.78125 20.515625 
Q 6.78125 27.484375 10.78125 32.3125 
Q 14.796875 37.15625 21.921875 38.8125 
z
M 18.3125 54.390625 
Q 18.3125 48.734375 21.84375 45.5625 
Q 25.390625 42.390625 31.78125 42.390625 
Q 38.140625 42.390625 41.71875 45.5625 
Q 45.3125 48.734375 45.3125 54.390625 
Q 45.3125 60.0625 41.71875 63.234375 
Q 38.140625 66.40625 31.78125 66.40625 
Q 25.390625 66.40625 21.84375 63.234375 
Q 18.3125 60.0625 18.3125 54.390625 
z
" id="DejaVuSans-56"/>
     </defs>
     <g transform="translate(312.523283 314.282513)scale(0.1 -0.1)">
      <use xlink:href="#DejaVuSans-49"/>
      <use x="63.623047" xlink:href="#DejaVuSans-48"/>
      <use x="127.246094" xlink:href="#DejaVuSans-49"/>
      <use x="190.869141" xlink:href="#DejaVuSans-56"/>
     </g>
    </g>
   </g>
   <g id="xtick_4">
    <g id="line2d_5">
     <path d="M 279.512366 307.449982 
L 284.089568 309.359677 
" style="fill:none;stroke:#000000;stroke-linecap:square;stroke-width:0.8;"/>
    </g>
    <g id="text_5">
     <!-- 1020 -->
     <defs>
      <path d="M 19.1875 8.296875 
L 53.609375 8.296875 
L 53.609375 0 
L 7.328125 0 
L 7.328125 8.296875 
Q 12.9375 14.109375 22.625 23.890625 
Q 32.328125 33.6875 34.8125 36.53125 
Q 39.546875 41.84375 41.421875 45.53125 
Q 43.3125 49.21875 43.3125 52.78125 
Q 43.3125 58.59375 39.234375 62.25 
Q 35.15625 65.921875 28.609375 65.921875 
Q 23.96875 65.921875 18.8125 64.3125 
Q 13.671875 62.703125 7.8125 59.421875 
L 7.8125 69.390625 
Q 13.765625 71.78125 18.9375 73 
Q 24.125 74.21875 28.421875 74.21875 
Q 39.75 74.21875 46.484375 68.546875 
Q 53.21875 62.890625 53.21875 53.421875 
Q 53.21875 48.921875 51.53125 44.890625 
Q 49.859375 40.875 45.40625 35.40625 
Q 44.1875 33.984375 37.640625 27.21875 
Q 31.109375 20.453125 19.1875 8.296875 
z
" id="DejaVuSans-50"/>
     </defs>
     <g transform="translate(278.627225 329.082458)scale(0.1 -0.1)">
      <use xlink:href="#DejaVuSans-49"/>
      <use x="63.623047" xlink:href="#DejaVuSans-48"/>
      <use x="127.246094" xlink:href="#DejaVuSans-50"/>
      <use x="190.869141" xlink:href="#DejaVuSans-48"/>
     </g>
    </g>
   </g>
   <g id="xtick_5">
    <g id="line2d_6">
     <path d="M 244.677637 322.423668 
L 249.255909 324.380649 
" style="fill:none;stroke:#000000;stroke-linecap:square;stroke-width:0.8;"/>
    </g>
    <g id="text_6">
     <!-- 1022 -->
     <g transform="translate(243.896672 344.246766)scale(0.1 -0.1)">
      <use xlink:href="#DejaVuSans-49"/>
      <use x="63.623047" xlink:href="#DejaVuSans-48"/>
      <use x="127.246094" xlink:href="#DejaVuSans-50"/>
      <use x="190.869141" xlink:href="#DejaVuSans-50"/>
     </g>
    </g>
   </g>
  </g>
  <g id="axis3d_2">
   <g id="line2d_7">
    <path d="M 57.81797 250.253033 
L 236.627027 327.195516 
" style="fill:none;stroke:#000000;stroke-linecap:square;stroke-width:0.8;"/>
   </g>
   <g id="text_7">
    <!-- f2 -->
    <g transform="translate(117.282722 318.875964)scale(0.1 -0.1)">
     <use xlink:href="#DejaVuSans-102"/>
     <use x="35.205078" xlink:href="#DejaVuSans-50"/>
    </g>
   </g>
   <g id="Line3DCollection_2">
    <path d="M 247.915386 24.289942 
L 247.373897 186.400671 
L 68.525789 254.860665 
" style="fill:none;stroke:#b0b0b0;stroke-width:0.8;"/>
    <path d="M 279.395644 34.48067 
L 277.322798 197.779245 
L 98.39214 267.712313 
" style="fill:none;stroke:#b0b0b0;stroke-width:0.8;"/>
    <path d="M 311.569896 44.896057 
L 307.8996 209.39638 
L 128.924616 280.850599 
" style="fill:none;stroke:#b0b0b0;stroke-width:0.8;"/>
    <path d="M 344.461347 55.543614 
L 339.124259 221.259656 
L 160.145753 294.28522 
" style="fill:none;stroke:#b0b0b0;stroke-width:0.8;"/>
    <path d="M 378.09425 66.431193 
L 371.017584 233.376981 
L 192.079118 308.026315 
" style="fill:none;stroke:#b0b0b0;stroke-width:0.8;"/>
    <path d="M 412.493959 77.567 
L 403.601288 245.756604 
L 224.749361 322.084494 
" style="fill:none;stroke:#b0b0b0;stroke-width:0.8;"/>
   </g>
   <g id="xtick_6">
    <g id="line2d_8">
     <path d="M 70.04512 254.279091 
L 65.482571 256.025556 
" style="fill:none;stroke:#000000;stroke-linecap:square;stroke-width:0.8;"/>
    </g>
    <g id="text_8">
     <!-- 0 -->
     <g transform="translate(55.402069 275.238229)scale(0.1 -0.1)">
      <use xlink:href="#DejaVuSans-48"/>
     </g>
    </g>
   </g>
   <g id="xtick_7">
    <g id="line2d_9">
     <path d="M 99.913149 267.117844 
L 95.345511 268.903055 
" style="fill:none;stroke:#000000;stroke-linecap:square;stroke-width:0.8;"/>
    </g>
    <g id="text_9">
     <!-- 2 -->
     <g transform="translate(85.177649 288.23906)scale(0.1 -0.1)">
      <use xlink:href="#DejaVuSans-50"/>
     </g>
    </g>
   </g>
   <g id="xtick_8">
    <g id="line2d_10">
     <path d="M 130.447 280.2428 
L 125.87518 282.06806 
" style="fill:none;stroke:#000000;stroke-linecap:square;stroke-width:0.8;"/>
    </g>
    <g id="text_10">
     <!-- 4 -->
     <g transform="translate(115.617755 301.530042)scale(0.1 -0.1)">
      <use xlink:href="#DejaVuSans-52"/>
     </g>
    </g>
   </g>
   <g id="xtick_9">
    <g id="line2d_11">
     <path d="M 161.669188 293.663638 
L 157.09416 295.53031 
" style="fill:none;stroke:#000000;stroke-linecap:square;stroke-width:0.8;"/>
    </g>
    <g id="text_11">
     <!-- 6 -->
     <g transform="translate(146.744885 315.120997)scale(0.1 -0.1)">
      <use xlink:href="#DejaVuSans-54"/>
     </g>
    </g>
   </g>
   <g id="xtick_10">
    <g id="line2d_12">
     <path d="M 193.603256 307.390477 
L 189.026061 309.299986 
" style="fill:none;stroke:#000000;stroke-linecap:square;stroke-width:0.8;"/>
    </g>
    <g id="text_12">
     <!-- 8 -->
     <g transform="translate(178.582563 329.022196)scale(0.1 -0.1)">
      <use xlink:href="#DejaVuSans-56"/>
     </g>
    </g>
   </g>
   <g id="xtick_11">
    <g id="line2d_13">
     <path d="M 226.27383 321.433903 
L 221.695587 323.38774 
" style="fill:none;stroke:#000000;stroke-linecap:square;stroke-width:0.8;"/>
    </g>
    <g id="text_13">
     <!-- 10 -->
     <g transform="translate(207.97415 343.244387)scale(0.1 -0.1)">
      <use xlink:href="#DejaVuSans-49"/>
      <use x="63.623047" xlink:href="#DejaVuSans-48"/>
     </g>
    </g>
   </g>
  </g>
  <g id="axis3d_3">
   <g id="line2d_14">
    <path d="M 57.81797 250.253033 
L 48.255988 81.614806 
" style="fill:none;stroke:#000000;stroke-linecap:square;stroke-width:0.8;"/>
   </g>
   <g id="text_14">
    <!-- f3 -->
    <defs>
     <path d="M 40.578125 39.3125 
Q 47.65625 37.796875 51.625 33 
Q 55.609375 28.21875 55.609375 21.1875 
Q 55.609375 10.40625 48.1875 4.484375 
Q 40.765625 -1.421875 27.09375 -1.421875 
Q 22.515625 -1.421875 17.65625 -0.515625 
Q 12.796875 0.390625 7.625 2.203125 
L 7.625 11.71875 
Q 11.71875 9.328125 16.59375 8.109375 
Q 21.484375 6.890625 26.8125 6.890625 
Q 36.078125 6.890625 40.9375 10.546875 
Q 45.796875 14.203125 45.796875 21.1875 
Q 45.796875 27.640625 41.28125 31.265625 
Q 36.765625 34.90625 28.71875 34.90625 
L 20.21875 34.90625 
L 20.21875 43.015625 
L 29.109375 43.015625 
Q 36.375 43.015625 40.234375 45.921875 
Q 44.09375 48.828125 44.09375 54.296875 
Q 44.09375 59.90625 40.109375 62.90625 
Q 36.140625 65.921875 28.71875 65.921875 
Q 24.65625 65.921875 20.015625 65.03125 
Q 15.375 64.15625 9.8125 62.3125 
L 9.8125 71.09375 
Q 15.4375 72.65625 20.34375 73.4375 
Q 25.25 74.21875 29.59375 74.21875 
Q 40.828125 74.21875 47.359375 69.109375 
Q 53.90625 64.015625 53.90625 55.328125 
Q 53.90625 49.265625 50.4375 45.09375 
Q 46.96875 40.921875 40.578125 39.3125 
z
" id="DejaVuSans-51"/>
    </defs>
    <g transform="translate(4.537805 170.889105)scale(0.1 -0.1)">
     <use xlink:href="#DejaVuSans-102"/>
     <use x="35.205078" xlink:href="#DejaVuSans-51"/>
    </g>
   </g>
   <g id="Line3DCollection_3">
    <path d="M 57.239328 240.047928 
L 236.627027 172.504671 
L 416.014726 240.047928 
" style="fill:none;stroke:#b0b0b0;stroke-width:0.8;"/>
    <path d="M 55.618043 211.454401 
L 236.627027 145.029817 
L 417.636012 211.454401 
" style="fill:none;stroke:#b0b0b0;stroke-width:0.8;"/>
    <path d="M 53.967183 182.33931 
L 236.627027 117.083732 
L 419.286871 182.33931 
" style="fill:none;stroke:#b0b0b0;stroke-width:0.8;"/>
    <path d="M 52.285934 152.688253 
L 236.627027 88.654186 
L 420.96812 152.688253 
" style="fill:none;stroke:#b0b0b0;stroke-width:0.8;"/>
    <path d="M 50.573448 122.486293 
L 236.627027 59.728526 
L 422.680606 122.486293 
" style="fill:none;stroke:#b0b0b0;stroke-width:0.8;"/>
    <path d="M 48.828847 91.717934 
L 236.627027 30.293651 
L 424.425207 91.717934 
" style="fill:none;stroke:#b0b0b0;stroke-width:0.8;"/>
   </g>
   <g id="xtick_12">
    <g id="line2d_15">
     <path d="M 58.763178 239.474166 
L 54.187062 241.19717 
" style="fill:none;stroke:#000000;stroke-linecap:square;stroke-width:0.8;"/>
    </g>
    <g id="text_15">
     <!-- 0 -->
     <g transform="translate(34.410854 247.646365)scale(0.1 -0.1)">
      <use xlink:href="#DejaVuSans-48"/>
     </g>
    </g>
   </g>
   <g id="xtick_13">
    <g id="line2d_16">
     <path d="M 57.156474 210.889845 
L 52.536528 212.585219 
" style="fill:none;stroke:#000000;stroke-linecap:square;stroke-width:0.8;"/>
    </g>
    <g id="text_16">
     <!-- 1 -->
     <g transform="translate(32.611999 219.052838)scale(0.1 -0.1)">
      <use xlink:href="#DejaVuSans-49"/>
     </g>
    </g>
   </g>
   <g id="xtick_14">
    <g id="line2d_17">
     <path d="M 55.520477 181.784393 
L 50.855857 183.450837 
" style="fill:none;stroke:#000000;stroke-linecap:square;stroke-width:0.8;"/>
    </g>
    <g id="text_17">
     <!-- 2 -->
     <g transform="translate(30.780331 189.937747)scale(0.1 -0.1)">
      <use xlink:href="#DejaVuSans-50"/>
     </g>
    </g>
   </g>
   <g id="xtick_15">
    <g id="line2d_18">
     <path d="M 53.854379 152.143427 
L 49.144215 153.779584 
" style="fill:none;stroke:#000000;stroke-linecap:square;stroke-width:0.8;"/>
    </g>
    <g id="text_18">
     <!-- 3 -->
     <g transform="translate(28.914946 160.286691)scale(0.1 -0.1)">
      <use xlink:href="#DejaVuSans-51"/>
     </g>
    </g>
   </g>
   <g id="xtick_16">
    <g id="line2d_19">
     <path d="M 52.157342 121.95203 
L 47.400739 123.556481 
" style="fill:none;stroke:#000000;stroke-linecap:square;stroke-width:0.8;"/>
    </g>
    <g id="text_19">
     <!-- 4 -->
     <g transform="translate(27.014902 130.084731)scale(0.1 -0.1)">
      <use xlink:href="#DejaVuSans-52"/>
     </g>
    </g>
   </g>
   <g id="xtick_17">
    <g id="line2d_20">
     <path d="M 50.428495 91.194727 
L 45.624531 92.765989 
" style="fill:none;stroke:#000000;stroke-linecap:square;stroke-width:0.8;"/>
    </g>
    <g id="text_20">
     <!-- 5 -->
     <defs>
      <path d="M 10.796875 72.90625 
L 49.515625 72.90625 
L 49.515625 64.59375 
L 19.828125 64.59375 
L 19.828125 46.734375 
Q 21.96875 47.46875 24.109375 47.828125 
Q 26.265625 48.1875 28.421875 48.1875 
Q 40.625 48.1875 47.75 41.5 
Q 54.890625 34.8125 54.890625 23.390625 
Q 54.890625 11.625 47.5625 5.09375 
Q 40.234375 -1.421875 26.90625 -1.421875 
Q 22.3125 -1.421875 17.546875 -0.640625 
Q 12.796875 0.140625 7.71875 1.703125 
L 7.71875 11.625 
Q 12.109375 9.234375 16.796875 8.0625 
Q 21.484375 6.890625 26.703125 6.890625 
Q 35.15625 6.890625 40.078125 11.328125 
Q 45.015625 15.765625 45.015625 23.390625 
Q 45.015625 31 40.078125 35.4375 
Q 35.15625 39.890625 26.703125 39.890625 
Q 22.75 39.890625 18.8125 39.015625 
Q 14.890625 38.140625 10.796875 36.28125 
z
" id="DejaVuSans-53"/>
     </defs>
     <g transform="translate(25.079225 99.316371)scale(0.1 -0.1)">
      <use xlink:href="#DejaVuSans-53"/>
     </g>
    </g>
   </g>
  </g>
  <g id="axes_1">
   <g id="Path3DCollection_1">
    <defs>
     <path d="M 0 1.581139 
C 0.419323 1.581139 0.821528 1.41454 1.118034 1.118034 
C 1.41454 0.821528 1.581139 0.419323 1.581139 0 
C 1.581139 -0.419323 1.41454 -0.821528 1.118034 -1.118034 
C 0.821528 -1.41454 0.419323 -1.581139 0 -1.581139 
C -0.419323 -1.581139 -0.821528 -1.41454 -1.118034 -1.118034 
C -1.41454 -0.821528 -1.581139 -0.419323 -1.581139 0 
C -1.581139 0.419323 -1.41454 0.821528 -1.118034 1.118034 
C -0.821528 1.41454 -0.419323 1.581139 0 1.581139 
z
" id="C0_0_83886effc7"/>
    </defs>
    <g clip-path="url(#p83065b6a58)">
     <use style="fill:#1f77b4;stroke:#1f77b4;" x="236.627027" xlink:href="#C0_0_83886effc7" y="306.26114"/>
    </g>
    <g clip-path="url(#p83065b6a58)">
     <use style="fill:#1f77b4;fill-opacity:0.530454;stroke:#1f77b4;stroke-opacity:0.530454;" x="234.91284" xlink:href="#C0_0_83886effc7" y="39.374727"/>
    </g>
    <g clip-path="url(#p83065b6a58)">
     <use style="fill:#1f77b4;fill-opacity:0.464867;stroke:#1f77b4;stroke-opacity:0.464867;" x="238.301188" xlink:href="#C0_0_83886effc7" y="71.057565"/>
    </g>
    <g clip-path="url(#p83065b6a58)">
     <use style="fill:#1f77b4;fill-opacity:0.530454;stroke:#1f77b4;stroke-opacity:0.530454;" x="234.91284" xlink:href="#C0_0_83886effc7" y="39.374727"/>
    </g>
    <g clip-path="url(#p83065b6a58)">
     <use style="fill:#1f77b4;stroke:#1f77b4;" x="236.627027" xlink:href="#C0_0_83886effc7" y="306.26114"/>
    </g>
    <g clip-path="url(#p83065b6a58)">
     <use style="fill:#1f77b4;fill-opacity:0.3;stroke:#1f77b4;stroke-opacity:0.3;" x="255.78418" xlink:href="#C0_0_83886effc7" y="191.447476"/>
    </g>
    <g clip-path="url(#p83065b6a58)">
     <use style="fill:#1f77b4;fill-opacity:0.3;stroke:#1f77b4;stroke-opacity:0.3;" x="255.78418" xlink:href="#C0_0_83886effc7" y="191.447476"/>
    </g>
    <g clip-path="url(#p83065b6a58)">
     <use style="fill:#1f77b4;fill-opacity:0.508812;stroke:#1f77b4;stroke-opacity:0.508812;" x="236.30121" xlink:href="#C0_0_83886effc7" y="47.960393"/>
    </g>
    <g clip-path="url(#p83065b6a58)">
     <use style="fill:#1f77b4;fill-opacity:0.508812;stroke:#1f77b4;stroke-opacity:0.508812;" x="236.30121" xlink:href="#C0_0_83886effc7" y="47.960393"/>
    </g>
    <g clip-path="url(#p83065b6a58)">
     <use style="fill:#1f77b4;stroke:#1f77b4;" x="236.627027" xlink:href="#C0_0_83886effc7" y="306.26114"/>
    </g>
    <g clip-path="url(#p83065b6a58)">
     <use style="fill:#1f77b4;fill-opacity:0.3;stroke:#1f77b4;stroke-opacity:0.3;" x="255.78418" xlink:href="#C0_0_83886effc7" y="191.447476"/>
    </g>
    <g clip-path="url(#p83065b6a58)">
     <use style="fill:#1f77b4;stroke:#1f77b4;" x="236.627027" xlink:href="#C0_0_83886effc7" y="306.26114"/>
    </g>
    <g clip-path="url(#p83065b6a58)">
     <use style="fill:#1f77b4;fill-opacity:0.508812;stroke:#1f77b4;stroke-opacity:0.508812;" x="236.30121" xlink:href="#C0_0_83886effc7" y="47.960393"/>
    </g>
    <g clip-path="url(#p83065b6a58)">
     <use style="fill:#1f77b4;fill-opacity:0.530454;stroke:#1f77b4;stroke-opacity:0.530454;" x="234.91284" xlink:href="#C0_0_83886effc7" y="39.374727"/>
    </g>
    <g clip-path="url(#p83065b6a58)">
     <use style="fill:#1f77b4;stroke:#1f77b4;" x="236.627027" xlink:href="#C0_0_83886effc7" y="306.26114"/>
    </g>
    <g clip-path="url(#p83065b6a58)">
     <use style="fill:#1f77b4;fill-opacity:0.530454;stroke:#1f77b4;stroke-opacity:0.530454;" x="234.91284" xlink:href="#C0_0_83886effc7" y="39.374727"/>
    </g>
    <g clip-path="url(#p83065b6a58)">
     <use style="fill:#1f77b4;stroke:#1f77b4;" x="236.627027" xlink:href="#C0_0_83886effc7" y="306.26114"/>
    </g>
    <g clip-path="url(#p83065b6a58)">
     <use style="fill:#1f77b4;stroke:#1f77b4;" x="236.627027" xlink:href="#C0_0_83886effc7" y="306.26114"/>
    </g>
    <g clip-path="url(#p83065b6a58)">
     <use style="fill:#1f77b4;fill-opacity:0.530454;stroke:#1f77b4;stroke-opacity:0.530454;" x="234.91284" xlink:href="#C0_0_83886effc7" y="39.374727"/>
    </g>
    <g clip-path="url(#p83065b6a58)">
     <use style="fill:#1f77b4;stroke:#1f77b4;" x="236.627027" xlink:href="#C0_0_83886effc7" y="306.26114"/>
    </g>
    <g clip-path="url(#p83065b6a58)">
     <use style="fill:#1f77b4;stroke:#1f77b4;" x="236.627027" xlink:href="#C0_0_83886effc7" y="306.26114"/>
    </g>
    <g clip-path="url(#p83065b6a58)">
     <use style="fill:#1f77b4;stroke:#1f77b4;" x="236.627027" xlink:href="#C0_0_83886effc7" y="306.26114"/>
    </g>
    <g clip-path="url(#p83065b6a58)">
     <use style="fill:#1f77b4;stroke:#1f77b4;" x="236.627027" xlink:href="#C0_0_83886effc7" y="306.26114"/>
    </g>
    <g clip-path="url(#p83065b6a58)">
     <use style="fill:#1f77b4;fill-opacity:0.530454;stroke:#1f77b4;stroke-opacity:0.530454;" x="234.91284" xlink:href="#C0_0_83886effc7" y="39.374727"/>
    </g>
    <g clip-path="url(#p83065b6a58)">
     <use style="fill:#1f77b4;stroke:#1f77b4;" x="236.627027" xlink:href="#C0_0_83886effc7" y="306.26114"/>
    </g>
    <g clip-path="url(#p83065b6a58)">
     <use style="fill:#1f77b4;stroke:#1f77b4;" x="236.627027" xlink:href="#C0_0_83886effc7" y="306.26114"/>
    </g>
    <g clip-path="url(#p83065b6a58)">
     <use style="fill:#1f77b4;fill-opacity:0.530454;stroke:#1f77b4;stroke-opacity:0.530454;" x="234.91284" xlink:href="#C0_0_83886effc7" y="39.374727"/>
    </g>
    <g clip-path="url(#p83065b6a58)">
     <use style="fill:#1f77b4;stroke:#1f77b4;" x="236.627027" xlink:href="#C0_0_83886effc7" y="306.26114"/>
    </g>
    <g clip-path="url(#p83065b6a58)">
     <use style="fill:#1f77b4;stroke:#1f77b4;" x="236.627027" xlink:href="#C0_0_83886effc7" y="306.26114"/>
    </g>
    <g clip-path="url(#p83065b6a58)">
     <use style="fill:#1f77b4;stroke:#1f77b4;" x="236.627027" xlink:href="#C0_0_83886effc7" y="306.26114"/>
    </g>
   </g>
  </g>
 </g>
 <defs>
  <clipPath id="p83065b6a58">
   <rect height="345.6" width="460.8" x="0" y="0"/>
  </clipPath>
 </defs>
</svg>
